<svg xmlns="http://www.w3.org/2000/svg" viewBox="0 0 319.97 418">
    <defs>
        <style>.cls-1{fill:#39f;}</style>
    </defs>
    <title>02__Background</title>
    <g id="Layer_2" data-name="Layer 2">
        <g id="Map">
            <g id="_02__Background" data-name="02__Background">
                <path class="cls-1"
                    d="M46.15,266.29v9.86H45.2v2.07h4.12v.72H60.75v-6.37h3.3v-3.95H93.2v3.76h3.93v10.49h6.54V258H97.21v1.9H87.66v5.23H70.17V259.9h-15V231.54h5.21v-7.89h2.38V211.33l-4.5-2.92H56v4.05H43.62V210h-1.3l-7.46,7.68L43.32,226h5v.85h.71v22h-.66v.46H46.06v8.2a4.4,4.4,0,0,1,.09,8.76Z" />
                <path class="cls-1"
                    d="M104.2,402.08h-1v5.35H84.74V379.52h18.73v4.87h1.15V373.18H100.2A8.19,8.19,0,0,1,93.42,377c-6.26,0-11.67-8-5.84-13.81,4.41-4.41,10.3-2.1,12.62,1.65h4.44V354h-1.1v4.17H81.64V330.86h22.07v3.45h.89V310.07H97.06V320.5h-4v4.18H64.84v-3.75h-4V301.29a4.42,4.42,0,0,1,.06-8.78v-7.6H46.2v2.32h8.1v23H50.59v7.45a4.38,4.38,0,0,1,0,8.74v8.3h8.15a4.31,4.31,0,0,1,8.52,0H74V365a4.22,4.22,0,0,1,3.59,4.07,4.05,4.05,0,0,1-3.59,4v8.5h3.65v29.43H74v4.15h-6l-.34,2.61h42v-4.77h-5.4Z" />
                <rect class="cls-1" x="118.35" y="413.21" width="17.7" height="4.63" />
                <rect class="cls-1" x="184.78" y="413.21" width="17.38" height="4.63" />
                <rect class="cls-1" x="144.48" y="413.21" width="11.62" height="4.63" />
                <rect class="cls-1" x="163.75" y="413.21" width="11.62" height="4.63" />
                <rect class="cls-1" x="124.22" y="358.61" width="7.68" height="20.46" />
                <rect class="cls-1" x="189.05" y="358.77" width="7.68" height="20.46" />
                <rect class="cls-1" x="124.22" y="310.16" width="7.68" height="21.16" />
                <rect class="cls-1" x="189.05" y="310" width="7.68" height="21.29" />
                <rect class="cls-1" x="124.27" y="257.88" width="11.39" height="25.22" />
                <rect class="cls-1" x="184.8" y="258.03" width="11.39" height="25.22" />
                <path class="cls-1"
                    d="M96.86,211v6.83h33V199.1l-10.7-10.5H96.86v8.61a7,7,0,0,1,0,13.8Z" />
                <path class="cls-1"
                    d="M223.5,197.21V188.6H201.23l-10.7,10.5v18.74h33V211a7,7,0,0,1,0-13.8Z" />
                <path class="cls-1"
                    d="M115.87,101.89a7.26,7.26,0,0,1-7.08-5.67H97.21v12.47a6.83,6.83,0,0,1,0,13.38v9.25h21.26l13.71-14.42V96.22h-9.24A7.24,7.24,0,0,1,115.87,101.89Z" />
                <path class="cls-1"
                    d="M204.64,101.89a7.26,7.26,0,0,1-7.08-5.67h-9.24V116.9L202,131.32h21.25v-9.25a6.83,6.83,0,0,1,0-13.38V96.22H211.71A7.24,7.24,0,0,1,204.64,101.89Z" />
                <path class="cls-1"
                    d="M316.79,160.17a4.73,4.73,0,0,1,3-4.42s.7-12.51-8.86-21.67a4.32,4.32,0,0,1-5.74-6.31l-6.89-4.24v-7.66L276.15,93.8H270.5V71.27H274V63.14a4.35,4.35,0,0,1,0-8.69V45.6h-7.16a5,5,0,0,1-4.76,4,4.87,4.87,0,0,1-4.79-4h-7.63v4H226.11v-6L204,21.76l-5.62,0L192,15.31a4.78,4.78,0,0,1-3.8.47,4.94,4.94,0,0,1-3.31-3.35,4.76,4.76,0,0,1,.5-3.79l0-.05c-1-1.16-13.24-8.89-21.12-8.49a4.53,4.53,0,0,1-4.32,3.13A4.53,4.53,0,0,1,155.55,0s-12.22,1.17-21,8.68a4.75,4.75,0,0,1,.49,3.73A4.93,4.93,0,0,1,131,15.94a4.83,4.83,0,0,1-3.36-.82l-6.11,6.42h-5.66l-22,22.08v5.85H70.21V45.53H62.87s-1.43,3.91-5,3.86a4.85,4.85,0,0,1-4.8-3.8H46v9A4.26,4.26,0,0,1,46,63v8.22h3.54V93.9h-6l-22,22v7.64l-6.81,4.15a4.53,4.53,0,0,1-6,6.48c-10,11.3-8.66,21.51-8.66,21.51a4.68,4.68,0,0,1,3,4.36,4.66,4.66,0,0,1-3,4.36s-1.41,10.79,8.09,21.34c0,0,2.68-2.14,5.77.57a5.08,5.08,0,0,1,.85,6.53L21.67,197v7.48l8.48,8.46L35,208.52v-2L42.37,201h1.25v-4.7h12.8v3.49H58.5l4.23-2.21V185.09H31.61l-6.14-3.39s-2.84,4.26-7.07,1.13a4.86,4.86,0,0,1-1.13-6.44,20.89,20.89,0,0,1-4.53-11.95A4.34,4.34,0,0,1,8.41,160a4.4,4.4,0,0,1,4.4-4.41,18,18,0,0,1,4.73-12,4.68,4.68,0,0,1,7.31-5.82l6.84-2.72h31V123l-3.32-2.52H56V124H43.51v-5.2H43A6.73,6.73,0,1,1,43,113h.63V108.1H56.08v3.53h3.46l3.16-2.46v-12H60.37V88.76H55.5V71.16h5V60.4h9.85V55.19H88v5.37h9.64v2H109l3-4.5V56.45h-4.37V42.31h16.92V56.44H120.1v2.07l2.37,4.15H130V59h5.47V31.29l2.47-5.45a5.35,5.35,0,0,1,6.55-8.35,25.38,25.38,0,0,1,11.49-5,4.08,4.08,0,0,1,8.14,0,21.09,21.09,0,0,1,11.32,5,5.28,5.28,0,0,1,6.5,8.29l2.85,5.92V59.15H190v3.53h7.51l2.35-4.32v-2h-4.56V42.26h17V56.42h-4.46v1.79l2.91,4.41h11.58V60.45h9.75V55.19h17.6v5.38h9.75V71.23h4.93V88.79h-5.06V97.2h-2.23v12l3.25,2.49H264v-3.62h12.37V113H277a6.73,6.73,0,1,1,0,5.7h-.76V124H263.88v-3.59h-3.32L257.29,123v12.25h31l6.64,2.64a4.8,4.8,0,0,1,7.55,5.86s4.71,4.93,4.76,11.73v.23a4.32,4.32,0,0,1,0,8.64c-.33,8.22-4.52,11.87-4.52,11.87a5,5,0,0,1-8.32,5.4L288.22,185H257.16v12.6l4.37,2.25h2.1v-3.66h12.85v5.23h.76c1.61-3.22,6.41-5.36,10-1.77,4.5,4.51.33,10.64-4.5,10.64a6.14,6.14,0,0,1-5.56-3.54h-.87v5.68H263.86V208.4h-2.14l-4.57,3v12.23h2.53v7.94h5.12V259.9h-15v5.21H232.31v-5.23h-9.56V258h-6.51v25h6.63V272.59h3.92v-3.87h29v3.87H260v19.87a4.49,4.49,0,0,1-.1,9V321.1H256v3.65H226.79v-4.08h-4V310h-6.48v24.87h1V331h18.41v11a4.57,4.57,0,0,1,3.92,4.44,4.5,4.5,0,0,1-4,4.47v7.3H217.31V354h-1.15v11h4.46c2.28-3.87,8.28-6.32,12.76-1.73,5.71,5.84.33,13.71-5.9,13.71a8,8,0,0,1-6.8-3.82h-4.43v11.18h1.22v-4.76h18.64v27.77H217.68v-5.21h-1.19v11.09H211V418H253.3l-.42-2.87h-6.13V411h-3.51V381.52h3.7v-8.2a4.17,4.17,0,0,1-.06-8.3v-7.94h-4.17V334.75h10.82a4.5,4.5,0,0,1,4.36-3.59,4.45,4.45,0,0,1,4.36,3.56h8v-8.06a4.28,4.28,0,0,1-4.07-4.41,4.5,4.5,0,0,1,4-4.47v-7.63h-3.69V274.32H274v-8a4.57,4.57,0,0,1-4.09-4.47,4.49,4.49,0,0,1,4-4.47v-8h-3V226.14h5.79l21.67-21.62V196.8l6.82-4.08a4.79,4.79,0,0,1,6.38-6.88s8.57-7.36,8.41-21.22A4.71,4.71,0,0,1,316.79,160.17Z" />
            </g>
        </g>
    </g>
</svg>